<svg width="162" height="40" viewBox="0 0 162 40" fill="none" xmlns="http://www.w3.org/2000/svg">
<path d="M19.3346 9.32091L12.896 27.7548H6.6056L0.000732422 9.32091H4.80082L9.73137 23.5099L14.5392 9.32091H19.3346Z" fill="white"/>
<path d="M37.1977 27.2228C34.7878 27.6629 32.3469 27.9127 29.8978 27.9699C22.3929 27.9699 20.8436 23.9627 20.8436 18.6073C20.8436 13.4042 22.1451 9.11279 29.8978 9.11279C32.3483 9.11655 34.7927 9.35501 37.1977 9.82492L36.8638 12.8575C34.5667 12.4224 32.2381 12.1741 29.9009 12.1151C26.1422 12.1151 25.6235 14.1684 25.6235 18.6066C25.6235 23.0184 26.2346 24.9591 29.9009 24.9591C32.2326 24.8657 34.5551 24.6127 36.8521 24.2019L37.1977 27.2228Z" fill="white"/>
<path d="M48.5258 9.30926C52.9617 9.30926 55.6851 11.083 55.6851 14.3672C55.7382 15.0823 55.6164 15.7997 55.3302 16.4572C55.044 17.1148 54.6022 17.6928 54.0427 18.1414C54.7742 18.5054 55.3853 19.0726 55.8028 19.7751C56.2203 20.4775 56.4264 21.2854 56.3965 22.102C56.3965 26.3732 53.0813 27.7548 49.0259 27.7548H40.3631V9.30926H48.5258ZM44.9884 12.324V16.874H48.8155C50.5038 16.874 51.0349 16.2822 51.0349 14.3672C51.0349 12.668 50.5799 12.324 48.525 12.324H44.9884ZM44.9884 19.8569V24.754H49.0267C50.9542 24.754 51.7447 24.3184 51.7447 22.109C51.7447 19.8569 50.218 19.8569 48.8131 19.8569H44.9884Z" fill="white"/>
<path d="M112.312 13.8568C111.357 13.8694 110.407 13.9998 109.484 14.2451V9.00621H106.118V27.8307L106.556 27.868C108.012 27.9922 109.274 28.0753 110.678 28.0753C117.018 28.0753 118.289 25.254 118.289 20.6977C118.292 16.4762 117.292 13.8568 112.312 13.8568ZM114.87 20.7505C114.87 24.3461 114.312 25.553 111.008 25.6104C110.661 25.6197 110.171 25.6104 109.484 25.5809V16.7348C110.403 16.4649 111.354 16.3202 112.312 16.3046C114.199 16.3046 114.87 16.9763 114.87 20.7505Z" fill="white"/>
<path d="M126.16 13.8824C124.481 13.9164 122.804 14.0393 121.137 14.2505L120.623 14.3056L121.089 16.7573L121.526 16.7123C123.301 16.5298 124.874 16.3791 126.163 16.3791C127.554 16.3791 128.096 16.9538 128.096 18.4285V19.0956L124.707 19.4102C121.412 19.6913 119.74 21.1451 119.74 23.7319C119.74 26.4258 121.565 28.1002 124.502 28.1002C126.761 28.0793 129.002 27.6919 131.137 26.9531L131.468 26.846V18.4984C131.466 15.5218 129.584 13.8824 126.16 13.8824ZM128.093 21.5628V25.1709C126.949 25.4699 125.772 25.6333 124.589 25.6578C123.692 25.6329 123.157 24.9131 123.157 23.7319C123.157 22.6338 123.468 21.9698 125.03 21.8269L128.093 21.5628Z" fill="white"/>
<path d="M139.874 13.877C137.851 13.8919 135.85 14.3008 133.983 15.0807L133.672 15.1979V27.8703H137.04V16.7542C137.96 16.4843 138.912 16.3396 139.87 16.324C141.792 16.324 142.833 17.0229 142.833 20.7218V27.8664H146.259V20.7218C146.263 15.9877 144.293 13.877 139.874 13.877Z" fill="white"/>
<path d="M162.001 14.1185H157.904L153.197 18.8238H151.945V9H148.576V27.8672H151.945V22.0599H153.188L157.872 27.8672H161.803L155.703 20.4399L162.001 14.1185Z" fill="white"/>
<path d="M69.986 9.00388H61.4746V27.8703H69.986C77.2083 27.8703 77.7651 20.4632 77.7651 18.1932C77.7627 12.3533 74.9298 9.00388 69.986 9.00388ZM74.3108 18.194C74.3108 21.5931 73.1747 25.226 69.9852 25.226H64.8714V11.6489H69.9852C73.8899 11.6489 74.3108 16.2261 74.3108 18.194Z" fill="white"/>
<path d="M84.036 14.1185H80.6672V27.8703H84.036V14.1185Z" fill="white"/>
<path d="M93.3752 13.8902C87.0429 13.8902 85.7709 16.7131 85.7709 21.2677C85.7709 24.6218 86.4947 27.7251 91.7506 27.7251C92.6983 27.7116 93.6408 27.5825 94.5572 27.3407C94.4237 29.2977 93.7806 29.8568 91.9122 29.8568C90.266 29.7824 88.6336 29.5219 87.0461 29.0802L86.5972 28.9692L85.9278 31.3463L86.4046 31.4659C88.2128 31.9523 90.0704 32.2318 91.9417 32.2992C97.4858 32.2697 97.9455 29.0732 97.9455 25.5149V14.1239L97.1837 14.0703C95.9893 13.9865 94.6403 13.8902 93.3752 13.8902ZM94.5767 16.3861V24.8509C93.6573 25.12 92.7061 25.265 91.7483 25.2819C89.7416 25.2819 89.1918 24.409 89.1918 21.2235C89.1918 17.5324 89.7354 16.3783 93.1431 16.3473H93.2168C93.5997 16.3434 94.1596 16.3675 94.5767 16.3861Z" fill="white"/>
<path d="M103.869 14.1185H100.5V27.8703H103.869V14.1185Z" fill="white"/>
<path d="M82.5434 9.00621H82.1598C81.3354 9.00621 80.6672 9.67447 80.6672 10.4988V10.8824C80.6672 11.7068 81.3354 12.375 82.1598 12.375H82.5434C83.3678 12.375 84.036 11.7068 84.036 10.8824V10.4988C84.036 9.67447 83.3678 9.00621 82.5434 9.00621Z" fill="white"/>
<path d="M102.376 9.00621H101.992C101.168 9.00621 100.5 9.67447 100.5 10.4988V10.8824C100.5 11.7068 101.168 12.375 101.992 12.375H102.376C103.2 12.375 103.869 11.7068 103.869 10.8824V10.4988C103.869 9.67447 103.2 9.00621 102.376 9.00621Z" fill="white"/>
</svg>
