<svg width="198" height="68" viewBox="0 0 198 68" fill="none" xmlns="http://www.w3.org/2000/svg">
<mask id="mask0_12120_9617" style="mask-type:luminance" maskUnits="userSpaceOnUse" x="145" y="0" width="32" height="19">
<path d="M149.237 1.09106H149.261H149.214H149.237ZM157.399 0.532434C154.648 0.511896 151.9 0.701632 149.178 1.09998H149.13H149.193C146.097 1.69426 145.433 3.40876 145.433 3.40876C144.63 5.02224 146.166 9.41994 149.258 14.6259C153.162 14.085 157.101 13.8426 161.042 13.9008C166.698 14.0286 169.972 14.7299 171.415 15.6035C172.859 16.4771 172.421 18.15 172.246 18.6076C173.302 16.7385 175.547 12.3171 176.21 9.6428C176.874 6.96852 176.306 5.79481 176.184 5.50361C175.778 4.49253 175.034 3.65266 174.079 3.12648C171.004 1.5962 166.043 1.00489 162.801 0.749348C161.123 0.596816 159.39 0.519559 157.604 0.517578L157.399 0.532434Z" fill="white"/>
</mask>
<g mask="url(#mask0_12120_9617)">
<path d="M176.892 0.440468L144.585 0.524902L144.633 18.6832L176.94 18.5987L176.892 0.440468Z" fill="url(#paint0_linear_12120_9617)"/>
</g>
<mask id="mask1_12120_9617" style="mask-type:luminance" maskUnits="userSpaceOnUse" x="133" y="1" width="45" height="43">
<path d="M149.211 1.09717C149.181 1.10043 149.151 1.10539 149.122 1.11203C140.415 2.30059 136.62 4.97487 135.132 6.44572C134.589 7.00503 134.162 7.6666 133.877 8.39197C133.592 9.11734 133.454 9.89205 133.471 10.6711C133.584 14.0317 135.632 18.6939 136.567 20.5837C138.168 23.7295 140.008 26.7484 142.07 29.6139C144.123 32.4156 146.424 35.0271 148.946 37.4168C151.029 39.3274 153.893 41.761 156.247 42.9763C157.207 43.4334 158.256 43.6729 159.319 43.6776C160.867 43.6179 162.343 43.0126 163.486 41.969C165.695 39.9752 167.856 36.1629 169.362 33.6312C171.665 29.7476 173.567 25.1716 174.505 22.6964C175.213 20.8482 177.184 15.1341 177.743 10.9652C177.965 9.40353 177.759 7.81117 177.148 6.35658C176.849 5.64193 176.427 4.98519 175.901 4.41624C175.388 3.87553 174.775 3.44042 174.094 3.13556C175.05 3.66174 175.793 4.50161 176.199 5.51269C176.321 5.80983 176.895 6.98057 176.225 9.65188C175.556 12.3232 173.326 16.7209 172.264 18.6018V18.6196C172.005 19.0802 165.909 29.7921 162.986 29.7595C160.063 29.7268 153.658 21.1899 152.086 18.9524C151.044 17.4816 150.104 16.0315 149.276 14.6349C146.187 9.43496 144.651 5.03727 145.455 3.42379C145.455 3.42379 146.121 1.68848 149.232 1.115L149.211 1.09717ZM149.253 1.09717H149.232C149.241 1.09901 149.25 1.09901 149.258 1.09717H149.253Z" fill="white"/>
</mask>
<g mask="url(#mask1_12120_9617)">
<path d="M151.708 -20.8562L112.373 26.1919L159.695 65.6223L199.031 18.5742L151.708 -20.8562Z" fill="url(#paint1_linear_12120_9617)"/>
</g>
<path d="M30.3803 49.2451L25.7429 49.26V66.9132H30.3803V49.2451Z" fill="#034C2D"/>
<path d="M56.3618 66.6928C55.6857 66.4611 55.103 66.017 54.7009 65.4269C53.9479 64.2384 53.8824 62.8062 53.8646 60.9253V53.4373H51.0042V49.2476H53.8765V44.9688H58.5079V49.2476H62.7613V53.4343H58.496V61.4423C58.4838 61.8033 58.5077 62.1646 58.5674 62.5209C58.6121 62.7408 58.6537 62.7824 58.6656 62.7824C58.708 62.8242 58.764 62.8494 58.8234 62.8537C59.0936 62.9153 59.3709 62.9403 59.6479 62.928C60.0293 62.9128 60.4092 62.8711 60.7849 62.8032C61.1867 62.7408 61.5141 62.6754 61.5141 62.6754L62.3654 62.4942L62.8268 66.3095L62.2106 66.5294C61.129 66.8507 60.0083 67.0227 58.8799 67.0404C58.0265 67.0705 57.1744 66.9518 56.3618 66.6898" fill="#034C2D"/>
<path d="M72.3908 67.1569C71.2174 67.1824 70.046 67.0495 68.9083 66.7617C67.9273 66.5083 67.0392 65.9805 66.3485 65.2403C64.9912 63.7397 64.5626 61.4696 64.5626 58.1089C64.5626 55.5713 64.8246 53.6755 65.5091 52.2255C65.8351 51.5378 66.3103 50.9311 66.9003 50.4495C67.4903 49.968 68.1803 49.6235 68.9202 49.4413C70.0568 49.148 71.2294 49.0179 72.4027 49.055C74.3068 49.0815 76.2026 49.3106 78.058 49.7384L78.7545 49.9018L78.1592 54.0618L77.3169 53.8746C77.3169 53.8746 77.1978 53.8538 76.9835 53.7974C76.7692 53.7409 76.4358 53.7112 76.0519 53.6577C75.0883 53.5225 74.1168 53.451 73.1438 53.4438C72.316 53.4123 71.4876 53.4882 70.6793 53.6696C70.4817 53.7131 70.295 53.7965 70.1307 53.9145C69.9664 54.0325 69.828 54.1827 69.7238 54.356C69.5513 54.691 69.4366 55.0526 69.3845 55.4257C69.2765 56.3129 69.2297 57.2064 69.2446 58.1C69.2145 59.0694 69.2773 60.0396 69.4322 60.9971C69.581 61.6776 69.7834 62.0193 70.0483 62.254C70.2918 62.4452 70.5759 62.5783 70.8787 62.6433C71.6238 62.7943 72.3842 62.8561 73.1438 62.8275C74.427 62.8076 75.706 62.6743 76.9656 62.4293C77.0813 62.4182 77.1958 62.3974 77.3079 62.3669L78.1592 62.1797L78.7545 66.206L78.1175 66.4199C78.058 66.4407 75.912 67.1598 72.3938 67.1598" fill="#034C2D"/>
<path d="M123.753 52.8058C123.455 51.4686 122.797 50.387 121.702 49.7987C120.607 49.2104 119.267 49.044 117.559 49.044C116.517 49.044 115.428 49.1569 115.407 49.1569L115.192 49.1628L113.043 50.8328C113.02 50.8595 112.999 50.8595 112.966 50.8922C112.352 50.2204 111.592 49.697 110.746 49.3619C109.919 49.1017 109.052 48.99 108.186 49.0321H108.049C107.342 49.0366 106.635 49.0773 105.933 49.1539L105.772 49.1747L103.926 50.598C103.852 50.6456 103.804 50.6842 103.751 50.7109C103.731 50.7228 103.709 50.7299 103.686 50.7315C103.664 50.7331 103.641 50.7293 103.62 50.7202C103.599 50.7112 103.58 50.6973 103.566 50.6796C103.551 50.662 103.541 50.6411 103.536 50.6188L103.379 49.2341H99.5093V66.9022H104.179V53.6199C105.071 53.4655 105.974 53.388 106.879 53.3882C107.407 53.3718 107.936 53.4016 108.46 53.4773C108.646 53.5238 108.827 53.5906 108.998 53.6764C109.184 53.8607 109.308 54.097 109.356 54.3539C109.478 54.9851 109.532 55.6277 109.516 56.2705V66.9259H114.148V55.0522C114.152 54.5529 114.101 54.0546 113.996 53.5665C114.919 53.4546 115.849 53.399 116.779 53.4001C117.306 53.3816 117.834 53.4184 118.353 53.51C118.543 53.5433 118.726 53.6075 118.895 53.7002C119.095 53.8667 119.227 54.1001 119.267 54.3569C119.386 54.9955 119.435 55.645 119.416 56.2942V66.9111H124.033V55.9971C124.061 54.9301 123.967 53.8633 123.753 52.8177" fill="#034C2D"/>
<path d="M46.5103 49.8908C45.2244 49.246 43.6261 49.0439 41.5604 49.0439C39.8578 49.0439 38.3845 49.1925 37.1403 49.6977C36.5019 49.9467 35.9222 50.325 35.4375 50.8088C34.9529 51.2926 34.574 51.8713 34.3245 52.5086C33.7769 53.929 33.509 55.9733 33.503 58.0979C33.4655 59.6162 33.6511 61.1319 34.0537 62.5966C34.5805 64.4181 35.6282 65.6661 37.0302 66.3257C38.4321 66.9854 40.0572 67.1428 41.9295 67.1577C43.9872 67.163 46.0327 66.8421 47.9896 66.2068L48.6087 65.987L47.9687 62.0261L47.1532 62.1806C45.4239 62.5342 44.0219 62.8313 42.239 62.8313C41.5863 62.8454 40.9334 62.8087 40.2864 62.7214C39.7382 62.647 39.2331 62.3843 38.8577 61.9785C38.4232 61.4377 38.2029 60.3829 38.2059 59.4082V59.0249C38.2237 58.9804 38.2416 58.9388 38.2833 58.9328V58.909V58.9239C38.3178 58.9196 38.3528 58.9196 38.3874 58.9239C38.4529 58.9536 38.5095 58.9893 38.5779 59.0279L39.4411 59.8599L39.587 59.9817L39.7655 60.0144C40.8885 60.1918 42.0252 60.2674 43.1617 60.2402C45.5131 60.2165 47.5431 59.9966 48.4837 59.9609L49.2099 59.9401L49.2457 59.224C49.3111 58.0681 49.3439 57.5006 49.3439 56.8825C49.3767 55.6557 49.2537 54.4296 48.9778 53.2336C48.6087 51.7093 47.7872 50.5237 46.5103 49.8908ZM42.6081 56.0624H40.6287C40.0156 56.0624 39.1405 56.0416 38.2833 55.9584C38.316 55.4265 38.3517 55.0076 38.4053 54.6688C38.4389 54.4063 38.5238 54.1529 38.6553 53.923C38.7893 53.7091 38.9053 53.5962 39.3846 53.4595C40.1485 53.2858 40.9326 53.2169 41.7152 53.2544C42.2675 53.2368 42.8201 53.2766 43.3641 53.3733C43.5745 53.4124 43.7761 53.4889 43.9594 53.5991C44.2056 53.8172 44.3668 54.115 44.4148 54.44C44.5298 54.9523 44.5907 55.4751 44.5964 56C43.9088 56.0595 43.1826 56.0624 42.6021 56.0624" fill="#034C2D"/>
<path d="M95.6671 51.5191C95.3909 51.0292 95.0196 50.5993 94.575 50.2544C94.1304 49.9095 93.6213 49.6566 93.0776 49.5104C91.9525 49.1598 90.5892 49.0439 88.8688 49.0439C87.5865 49.0066 86.3044 49.1233 85.05 49.3915C84.3053 49.5664 83.6089 49.9044 83.0111 50.381C82.1569 51.0853 81.6538 52.1045 81.383 53.3733C81.1121 54.642 81.0258 56.1634 81.0258 58.0978C80.9919 59.5372 81.0835 60.9768 81.2996 62.4004C81.415 63.1965 81.6774 63.9642 82.0735 64.6646C82.3514 65.155 82.7238 65.5854 83.1693 65.9312C83.6148 66.277 84.1245 66.5313 84.669 66.6793C85.7941 67.0388 87.1484 67.1458 88.8688 67.1576C90.1562 67.1858 91.4426 67.0662 92.7026 66.8011C93.4494 66.6251 94.1446 66.2771 94.7325 65.7849C95.5838 65.0925 96.0868 64.0763 96.3577 62.8134C96.6285 61.5506 96.7 60.0173 96.7 58.0859C96.7308 56.6441 96.6442 55.2022 96.441 53.7744C96.3259 52.9773 96.0635 52.2086 95.6671 51.5072M91.9019 61.0157C91.8672 61.4017 91.778 61.7809 91.637 62.1419C91.5823 62.29 91.4913 62.4221 91.3722 62.5259C91.2531 62.6298 91.1098 62.7021 90.9554 62.7362C90.2727 62.8935 89.5716 62.9565 88.8718 62.9234C88.2254 62.9497 87.5781 62.9009 86.9431 62.7778C86.7204 62.7372 86.5139 62.6342 86.3478 62.4806C86.1721 62.3113 85.9876 61.9696 85.8775 61.2445C85.7622 60.1948 85.7145 59.1388 85.7346 58.0829C85.7181 57.109 85.7549 56.1349 85.8447 55.165C85.883 54.7796 85.9721 54.401 86.1096 54.0388C86.1684 53.8906 86.2626 53.759 86.384 53.6554C86.5054 53.5518 86.6503 53.4794 86.8061 53.4446C87.487 53.2757 88.189 53.2077 88.8897 53.2425C89.538 53.2185 90.187 53.2674 90.8244 53.3881C91.046 53.4319 91.2516 53.5346 91.4197 53.6852C91.5953 53.8576 91.7709 54.1904 91.8751 54.9184C91.9967 55.9706 92.0444 57.03 92.018 58.0889C92.018 59.3428 91.9852 60.3085 91.9138 61.0068" fill="#034C2D"/>
<path d="M177.401 52.8058C177.103 51.4686 176.421 50.387 175.332 49.7987C174.243 49.2103 172.912 49.0439 171.183 49.0439C170.54 49.0439 169.305 49.1866 169.29 49.1866L169.072 49.2103L167.23 50.6307C167.156 50.6753 167.108 50.7168 167.057 50.7495C167.038 50.7589 167.017 50.7643 166.995 50.7654C166.974 50.7664 166.952 50.7631 166.932 50.7556C166.911 50.7481 166.893 50.7366 166.877 50.7218C166.861 50.7069 166.849 50.6891 166.84 50.6693L166.685 49.246H162.771V66.914H167.406V53.6496C168.396 53.4782 169.398 53.3867 170.403 53.3763C170.931 53.3605 171.46 53.3904 171.983 53.4654C172.17 53.5069 172.351 53.5739 172.519 53.6645C172.719 53.8396 172.85 54.0797 172.888 54.342C173.011 54.9731 173.062 55.616 173.04 56.2585V66.914H177.698V55.9971C177.72 54.9306 177.628 53.8648 177.424 52.8176" fill="#034C2D"/>
<path d="M196.469 65.9602C196.442 65.9303 196.413 65.9025 196.382 65.877C196.358 65.8562 196.344 65.8324 196.317 65.8265C191.084 61.2118 189.679 57.355 189.679 57.355L192.76 53.8725L195.736 50.4791L197.251 48.7824L196.126 48.8062H191.787L185.857 55.3611C185.752 55.4838 185.637 55.5971 185.512 55.6999C185.388 55.7712 185.243 55.7985 185.101 55.7771V42.3018H180.452V66.914H185.101V59.0962C185.101 59.0962 185.45 59.0635 185.572 59.2388C185.572 59.2388 188.072 64.1803 191.596 66.8813H195.823V66.914H197.588C197.195 66.5931 196.811 66.2543 196.469 65.9602Z" fill="#034C2D"/>
<path d="M159.447 51.9404C159.116 51.1522 158.538 50.4916 157.801 50.0565C156.492 49.2602 154.738 49.0432 152.497 49.0432C150.185 49.02 147.88 49.32 145.651 49.9347L144.993 50.1308L145.672 54.264L146.538 54.0501C146.538 54.0501 146.699 54.0144 146.988 53.9401C148.648 53.5588 150.344 53.3517 152.048 53.3221C153.28 53.3221 154.131 53.4112 154.524 53.6192C154.779 53.7173 154.991 53.9041 155.119 54.1452C155.253 54.4888 155.318 54.8553 155.31 55.2238L150.113 55.2743C149.218 55.2643 148.325 55.3712 147.458 55.5923C146.922 55.7133 146.418 55.9468 145.98 56.2773C145.542 56.6077 145.179 57.0276 144.916 57.5088C144.41 58.4834 144.252 59.6482 144.24 61.1458C144.213 62.0781 144.318 63.0095 144.553 63.9122C144.692 64.4809 144.96 65.0102 145.336 65.4594C145.712 65.9086 146.187 66.2657 146.723 66.5033C147.812 66.9876 149.163 67.1362 150.92 67.1451C152 67.1451 153.325 66.9936 153.325 66.9936L153.583 66.9609L155.432 65.5524C155.489 65.5036 155.55 65.459 155.613 65.4187C155.633 65.41 155.653 65.4052 155.674 65.4047C155.695 65.4042 155.716 65.4079 155.736 65.4157C155.755 65.4235 155.773 65.4351 155.788 65.4499C155.802 65.4648 155.814 65.4825 155.822 65.5019L155.971 66.9015H159.956V54.891C159.991 53.8843 159.823 52.8809 159.462 51.9404M155.31 62.3998C153.963 62.6752 152.595 62.8343 151.22 62.8752C150.786 62.8829 150.353 62.8591 149.922 62.8039C149.741 62.7885 149.561 62.7495 149.39 62.688C149.26 62.6253 149.155 62.5206 149.092 62.3908C148.96 61.9988 148.904 61.5855 148.925 61.1726C148.906 60.7237 148.963 60.2747 149.092 59.8443C149.123 59.7418 149.178 59.6481 149.253 59.571C149.452 59.4713 149.67 59.4117 149.893 59.3957C150.262 59.3957 150.786 59.3957 151.423 59.3957L155.292 59.3035L155.31 62.3998Z" fill="#034C2D"/>
<path d="M138.549 49.5451C137.496 49.1839 136.387 49.0139 135.275 49.0429C134.837 49.052 134.4 49.0928 133.968 49.1647C133.834 49.2063 133.709 49.2212 133.617 49.2449L131.831 50.6742C131.77 50.7142 131.707 50.749 131.64 50.7782C131.521 50.8436 131.456 50.7782 131.447 50.7098V42.3037H126.827V65.9621L127.366 66.1404C129.484 66.8114 131.692 67.1541 133.914 67.1566C135.253 67.1956 136.591 67.0395 137.885 66.6931C138.649 66.4946 139.356 66.1204 139.95 65.6003C140.543 65.0802 141.006 64.4287 141.302 63.6979C141.927 62.2449 142.076 60.4026 142.076 58.0314C142.076 55.0451 141.814 52.8671 140.763 51.2714C140.22 50.4858 139.447 49.8877 138.549 49.5599M137.239 60.7503C137.195 61.1409 137.095 61.5232 136.941 61.8853C136.878 62.0483 136.78 62.1956 136.654 62.3171C136.528 62.4387 136.377 62.5316 136.212 62.5896C135.635 62.7679 135.03 62.8453 134.426 62.8184C133.584 62.8143 132.742 62.7527 131.908 62.6341C131.772 62.6134 131.638 62.5826 131.506 62.542V53.7318C132.5 53.4864 133.517 53.3489 134.539 53.3217C135.076 53.2992 135.613 53.3696 136.126 53.5297C136.346 53.591 136.544 53.7112 136.7 53.8774C136.988 54.2602 137.171 54.7105 137.233 55.1848C137.453 57.0321 137.459 58.8986 137.251 60.7473" fill="#034C2D"/>
<path d="M8.61624 66.5298L8.6579 66.5922L8.72934 66.6219C9.92037 66.8722 11.1346 66.9957 12.3517 66.9904C13.5132 66.9979 14.6717 66.8722 15.8045 66.616L15.8878 66.6011L15.9265 66.5239C19.9295 60.4516 22.5742 53.5893 23.6802 46.4044C23.8867 45.1124 24.0198 43.8099 24.0791 42.5029L18.5756 43.3082C18.1678 46.2796 16.6974 54.8373 12.5809 61.8231L12.4113 62.1202L12.2446 61.8231C9.86959 57.682 8.1147 53.2162 7.03572 48.5676C6.62199 46.8145 6.26183 44.4076 6.10408 43.2814L0.517212 42.5297C0.532094 43.5162 0.922016 54.7481 8.61624 66.5239" fill="#034C2D"/>
<defs>
<linearGradient id="paint0_linear_12120_9617" x1="141.871" y1="13.8428" x2="173.136" y2="13.7608" gradientUnits="userSpaceOnUse">
<stop stop-color="#034C2D"/>
<stop offset="0.26" stop-color="#286A31"/>
<stop offset="0.84" stop-color="#87B73D"/>
<stop offset="0.91" stop-color="#92C03E"/>
<stop offset="1" stop-color="#92C03E"/>
</linearGradient>
<linearGradient id="paint1_linear_12120_9617" x1="136.316" y1="5.64401" x2="170.609" y2="34.3156" gradientUnits="userSpaceOnUse">
<stop stop-color="#92C03E"/>
<stop offset="0.1" stop-color="#92C03E"/>
<stop offset="0.46" stop-color="#548E37"/>
<stop offset="0.82" stop-color="#1A5F30"/>
<stop offset="1" stop-color="#034C2D"/>
</linearGradient>
</defs>
</svg>
