<svg width="912" height="104" viewBox="0 0 912 104" fill="none" xmlns="http://www.w3.org/2000/svg">
<g clip-path="url(#clip0_5570_140539)">
<mask id="mask0_5570_140539" style="mask-type:alpha" maskUnits="userSpaceOnUse" x="0" y="0" width="912" height="104">
<rect width="912" height="104" fill="white"/>
</mask>
<g mask="url(#mask0_5570_140539)">
<rect width="912" height="104" fill="url(#paint0_linear_5570_140539)" fill-opacity="0.5"/>
<rect width="912" height="104" fill="white" fill-opacity="0.12"/>
<g opacity="0.56" clip-path="url(#clip1_5570_140539)">
<g opacity="0.08" filter="url(#filter0_f_5570_140539)">
<path d="M-271.093 22.0559C-264.067 23.3672 -256.853 25.2064 -249.306 27.5257C-236.678 31.4063 -224.05 35.2869 -211.423 36.1613C-199.837 36.9635 -186.633 33.0739 -171.056 28.4852C-151.408 22.6973 -127.984 15.7972 -99.2694 15.7972C-78.7631 15.7972 -61.1741 20.4895 -44.2363 25.0081C-18.6527 31.8332 5.44514 38.2619 35.8658 27.5257C86.4266 9.68152 118.142 10.1743 159.97 29.6891C201.797 49.204 235.88 45.5588 263.702 36.6782C266.396 35.8181 269.063 34.9167 271.712 34.0218C282.271 30.4532 292.528 26.9872 303.001 26.6491C317.681 26.1074 332.361 31.0285 347.041 35.9496C358.561 39.8113 370.081 43.6729 381.601 44.8949C396.17 46.4404 410.74 43.726 425.309 41.0117C436.939 38.8449 448.569 36.6782 460.2 36.6782C472.302 36.6782 484.404 39.0245 496.507 41.3708C510.604 44.1038 524.701 46.8368 538.798 45.8615C551.426 44.9879 564.054 41.1108 576.682 37.2337C590.254 33.0667 603.826 28.8997 617.397 28.4616C637.438 27.7221 654.741 31.7671 672.002 35.8023C693.228 40.7641 714.389 45.7111 740.499 41.729C754.609 39.577 768.1 36.0992 781.411 32.6677C813.164 24.482 843.895 16.5598 879.579 27.5257C892.206 31.4063 904.834 35.2869 917.462 36.1613C931.559 37.1374 945.657 34.4019 959.754 31.6665C985.118 26.7449 1005.53 26.5671 1030.95 31.3071C1045.52 34.0238 1060.09 36.7406 1074.66 35.1938C1086.18 33.9707 1097.7 30.1056 1109.22 26.2405C1140.88 15.6185 1161.53 15.5832 1192.56 26.9697C1195.42 28.0182 1198.38 29.1904 1201.41 30.3871C1212.27 34.6774 1223.91 39.2809 1234.16 39.6119C1311.91 39.6119 1311.88 41.2551 1310.78 119.728C1310.63 130.328 1310.46 142.33 1310.46 155.919L-271.093 155.919V22.0559Z" fill="url(#paint1_linear_5570_140539)"/>
</g>
<g opacity="0.12" filter="url(#filter1_f_5570_140539)">
<path d="M1311.41 65.2662C1304.39 66.5797 1297.17 68.4219 1289.62 70.745C1277 74.6318 1264.37 78.5187 1251.74 79.3945C1240.16 80.1981 1226.95 76.3022 1211.37 71.706C1191.73 65.9087 1168.3 58.9974 1139.59 58.9974C1119.08 58.9974 1101.49 63.6974 1084.55 68.2233C1058.97 75.0595 1034.87 81.4986 1004.45 70.745C953.892 52.8718 922.176 53.3654 880.349 72.9119C838.521 92.4584 804.438 88.8073 776.617 79.9123C773.922 79.0508 771.255 78.1479 768.607 77.2516C758.047 73.6772 747.791 70.2056 737.317 69.8669C722.637 69.3244 707.957 74.2534 693.277 79.1825C681.757 83.0504 670.237 86.9183 658.718 88.1423C644.148 89.6903 629.579 86.9715 615.009 84.2528C603.379 82.0825 591.749 79.9123 580.119 79.9123C568.016 79.9123 555.914 82.2624 543.812 84.6125C529.714 87.3499 515.617 90.0874 501.52 89.1105C488.892 88.2355 476.264 84.3521 463.637 80.4687C450.065 76.295 436.493 72.1212 422.921 71.6823C402.88 70.9417 385.577 74.9932 368.316 79.0349C347.091 84.0048 325.929 88.9598 299.819 84.9713C285.709 82.8158 272.218 79.3323 258.907 75.8953C227.155 67.6964 196.424 59.7613 160.74 70.745C148.112 74.6318 135.484 78.5187 122.856 79.3945C108.759 80.3722 94.6618 77.6323 80.5645 74.8924C55.2008 69.9628 34.7863 69.7848 9.367 74.5324C-5.20258 77.2536 -19.7721 79.9748 -34.3417 78.4254C-45.8614 77.2004 -57.381 73.329 -68.9006 69.4576C-100.558 58.8184 -121.213 58.7831 -152.24 70.1881C-155.097 71.2382 -158.063 72.4124 -161.091 73.6109C-171.947 77.9083 -183.595 82.5192 -193.838 82.8507C-271.587 82.8507 -271.564 84.4966 -270.458 163.097C-270.308 173.714 -270.139 185.736 -270.139 199.347L1311.41 199.347V65.2662Z" fill="url(#paint2_linear_5570_140539)"/>
</g>
</g>
</g>
</g>
<defs>
<filter id="filter0_f_5570_140539" x="-271.965" y="13.7078" width="1583.84" height="143.084" filterUnits="userSpaceOnUse" color-interpolation-filters="sRGB">
<feFlood flood-opacity="0" result="BackgroundImageFix"/>
<feBlend mode="normal" in="SourceGraphic" in2="BackgroundImageFix" result="shape"/>
<feGaussianBlur stdDeviation="0.436161" result="effect1_foregroundBlur_5570_140539"/>
</filter>
<filter id="filter1_f_5570_140539" x="-271.58" y="56.8797" width="1583.89" height="143.366" filterUnits="userSpaceOnUse" color-interpolation-filters="sRGB">
<feFlood flood-opacity="0" result="BackgroundImageFix"/>
<feBlend mode="normal" in="SourceGraphic" in2="BackgroundImageFix" result="shape"/>
<feGaussianBlur stdDeviation="0.449293" result="effect1_foregroundBlur_5570_140539"/>
</filter>
<linearGradient id="paint0_linear_5570_140539" x1="961.5" y1="-2.10195e-06" x2="970.627" y2="122.574" gradientUnits="userSpaceOnUse">
<stop stop-color="#010C1E" stop-opacity="0"/>
<stop offset="0.664727" stop-color="#B530E3" stop-opacity="0.6"/>
</linearGradient>
<linearGradient id="paint1_linear_5570_140539" x1="519.953" y1="14.5801" x2="519.953" y2="155.919" gradientUnits="userSpaceOnUse">
<stop stop-color="white"/>
<stop offset="1" stop-color="white" stop-opacity="0"/>
</linearGradient>
<linearGradient id="paint2_linear_5570_140539" x1="520.046" y1="57.7783" x2="520.046" y2="199.347" gradientUnits="userSpaceOnUse">
<stop stop-color="#FCFEF3"/>
<stop offset="1" stop-color="#FCFEF3" stop-opacity="0"/>
</linearGradient>
<clipPath id="clip0_5570_140539">
<rect width="912" height="104" fill="white"/>
</clipPath>
<clipPath id="clip1_5570_140539">
<rect width="912" height="360" fill="white" transform="translate(0 -72)"/>
</clipPath>
</defs>
</svg>
