<svg width="29" height="27" viewBox="0 0 29 27" fill="none" xmlns="http://www.w3.org/2000/svg">
<path d="M11.0936 0.327669C11.0936 0.327669 11.1111 0.327669 11.1154 0.323303H11.1242C11.1242 0.323303 11.1023 0.323304 11.0936 0.327669C9.26454 0.663795 8.87167 1.68527 8.87167 1.68527C8.39586 2.63253 9.29947 5.2255 11.1198 8.28556C11.6174 8.20698 14.7342 7.78792 18.0606 7.86213C21.3913 7.93197 23.3207 8.34667 24.1676 8.86177C25.0101 9.37251 24.7613 10.3634 24.6565 10.6341C25.2764 9.53403 26.599 6.93232 26.9919 5.35646C27.3892 3.78496 27.0487 3.09525 26.9788 2.925C26.6165 2.03012 25.9137 1.62415 25.7391 1.53248C23.9275 0.633238 21.0159 0.284016 19.0995 0.135597C18.0693 0.0439259 17.0042 -0.00409181 15.9129 0.000273465C14.2148 0.000273465 12.604 0.100674 11.0718 0.336399H11.0325C11.0325 0.336399 11.0718 0.336399 11.0892 0.336399L11.0936 0.327669Z" fill="#553716"/>
<path d="M10.6746 0.345186C10.6746 0.345186 10.6703 0.345186 10.6615 0.345186C10.6703 0.345186 10.679 0.345186 10.6834 0.345186H10.6746ZM28.5155 6.52641C28.7119 5.07714 28.306 3.97709 28.1532 3.6366C27.9305 3.13896 27.673 2.73736 27.3718 2.42306C27.2321 2.27464 27.0007 2.06947 26.7694 1.91232C26.5075 1.73771 26.2412 1.61985 26.2412 1.61985C26.4245 1.71588 27.171 2.14804 27.5595 3.09967C27.6381 3.28301 27.996 4.01638 27.577 5.68828C27.1579 7.35581 25.761 10.1147 25.0975 11.2933C25.0975 11.2933 25.0975 11.302 25.0888 11.3064C24.9272 11.5945 21.1033 18.2996 19.2742 18.2777C17.4452 18.2603 13.4335 12.9128 12.4426 11.5159C11.7921 10.5905 11.2028 9.6825 10.6834 8.80945C8.74518 5.55295 7.78482 2.79847 8.29119 1.78573C8.29119 1.78573 8.71025 0.698773 10.6572 0.34082C10.6572 0.34082 10.6179 0.345186 10.6004 0.349551C5.14383 1.10038 2.76039 2.76355 1.82622 3.68898C1.82622 3.68898 0.730538 4.71482 0.787287 6.33434C0.861497 8.4384 2.14052 11.3675 2.72547 12.5461C3.95211 15.0256 5.6764 17.5269 6.17404 18.1948C7.1213 19.4913 8.77574 21.508 10.4826 23.0752C11.7878 24.2712 13.5819 25.7991 15.0574 26.5586C15.8911 26.9908 16.8864 27.0039 16.9868 26.9995C17.2138 26.9952 18.4666 26.9472 19.5929 25.93C20.9767 24.6816 22.3299 22.2981 23.2728 20.7135C24.7177 18.2821 25.9094 15.4141 26.4987 13.8644C26.944 12.7076 28.1706 9.12811 28.5242 6.51768L28.5155 6.52641Z" fill="#553716"/>
</svg>
