<svg xmlns="http://www.w3.org/2000/svg" width="24" height="24" viewBox="0 0 24 24" fill="none">
<g clip-path="url(#clip0_8168_407008)">
<path d="M12 24C18.6274 24 24 18.6274 24 12C24 5.37258 18.6274 0 12 0C5.37258 0 0 5.37258 0 12C0 18.6274 5.37258 24 12 24Z" fill="#F0F0F0"/>
<path d="M2.48081 4.69287C1.5382 5.91926 0.827433 7.33278 0.413574 8.86835H6.65629L2.48081 4.69287Z" fill="#0052B4"/>
<path d="M23.5874 8.8688C23.1735 7.33327 22.4627 5.91975 21.5201 4.69336L17.3447 8.8688H23.5874Z" fill="#0052B4"/>
<path d="M0.413574 15.1304C0.827481 16.6659 1.53825 18.0794 2.48081 19.3058L6.65616 15.1304H0.413574Z" fill="#0052B4"/>
<path d="M19.3058 2.47988C18.0794 1.53727 16.666 0.826504 15.1304 0.412598V6.65527L19.3058 2.47988Z" fill="#0052B4"/>
<path d="M4.69385 21.5176C5.92024 22.4602 7.33376 23.171 8.86929 23.5849V17.3423L4.69385 21.5176Z" fill="#0052B4"/>
<path d="M8.86924 0.412598C7.33371 0.826504 5.92019 1.53727 4.69385 2.47983L8.86924 6.65522V0.412598Z" fill="#0052B4"/>
<path d="M15.1304 23.5849C16.6659 23.171 18.0794 22.4602 19.3058 21.5177L15.1304 17.3423V23.5849Z" fill="#0052B4"/>
<path d="M17.3447 15.1304L21.5201 19.3058C22.4627 18.0795 23.1735 16.6659 23.5874 15.1304H17.3447Z" fill="#0052B4"/>
<path d="M23.8984 10.4348H13.5653H13.5653V0.101578C13.0529 0.034875 12.5305 0 12 0C11.4694 0 10.9471 0.034875 10.4348 0.101578V10.4347V10.4347H0.101578C0.034875 10.9471 0 11.4695 0 12C0 12.5306 0.034875 13.0529 0.101578 13.5652H10.4347H10.4347V23.8984C10.9471 23.9651 11.4694 24 12 24C12.5305 24 13.0529 23.9652 13.5652 23.8984V13.5653V13.5653H23.8984C23.9651 13.0529 24 12.5306 24 12C24 11.4695 23.9651 10.9471 23.8984 10.4348Z" fill="#D80027"/>
<path d="M15.1304 15.1314L20.4852 20.4862C20.7315 20.24 20.9664 19.9826 21.1906 19.7158L16.6061 15.1313H15.1304V15.1314Z" fill="#D80027"/>
<path d="M8.86951 15.1313H8.86941L3.51465 20.4861C3.76084 20.7324 4.01823 20.9673 4.28504 21.1915L8.86951 16.6069V15.1313Z" fill="#D80027"/>
<path d="M8.86927 8.86911V8.86902L3.51446 3.51416C3.26818 3.76035 3.03324 4.01774 2.80908 4.28455L7.3936 8.86907H8.86927V8.86911Z" fill="#D80027"/>
<path d="M15.1304 8.87029L20.4852 3.51539C20.239 3.26911 19.9817 3.03417 19.7148 2.81006L15.1304 7.39457V8.87029Z" fill="#D80027"/>
</g>
<defs>
<clipPath id="clip0_8168_407008">
<rect width="24" height="24" fill="white"/>
</clipPath>
</defs>
</svg>
