<svg width="24" height="24" viewBox="0 0 24 24" fill="none" xmlns="http://www.w3.org/2000/svg">
<path d="M8.57 18.75C8.46263 18.7516 8.35618 18.7301 8.25784 18.6869C8.1595 18.6438 8.07157 18.58 8 18.5L3.44 13.29C3.32056 13.1471 3.26024 12.964 3.27139 12.7781C3.28255 12.5922 3.36433 12.4176 3.5 12.29C3.57349 12.2243 3.65924 12.1736 3.75232 12.1411C3.84539 12.1085 3.94398 12.0946 4.04244 12.1002C4.1409 12.1057 4.23729 12.1307 4.3261 12.1735C4.41491 12.2164 4.49439 12.2764 4.56 12.35L8.56 16.91L19.44 4.5C19.5726 4.35148 19.7588 4.26172 19.9576 4.25047C20.1564 4.23922 20.3515 4.30739 20.5 4.44C20.6485 4.57261 20.7383 4.75879 20.7495 4.95758C20.7608 5.15636 20.6926 5.35148 20.56 5.5L9.13 18.5C9.06038 18.5798 8.97423 18.6435 8.87752 18.6867C8.78082 18.7298 8.67589 18.7514 8.57 18.75Z" fill="black"/>
</svg>
